# xmcd
#
# Track frame offsets: 
#        150
#        17064
#        34465
#        52885
#        68238
#        83191
#        98923
#        112413
#        129948
#        147012
#        159357
#        177491
#
# Disc length: 2675 seconds
#
# Revision: 0
# Processed by: cddbd v1.5.2PL0 Copyright (c) Steve Scherf et al.
# Submitted via: ExactAudioCopyFreeDBPlugin 1.0
#
DISCID=a20a710c
DTITLE=Samuli Putro - Valkoinen hetero
DYEAR=2017
DGENRE=Pop
TTITLE0=Työ
TTITLE1=Matkamuistot
TTITLE2=Surullinen AD
TTITLE3=Viihdettä
TTITLE4=Helppo ja luonteva
TTITLE5=Valkoinen hetero
TTITLE6=Tätä kadun myöhemmin
TTITLE7=Artisti
TTITLE8=Jumala vihaa sua
TTITLE9=Noniin noniin
TTITLE10=Kohta pidetään hauskaa
TTITLE11=Kävelylle
EXTD=
EXTT0=
EXTT1=
EXTT2=
EXTT3=
EXTT4=
EXTT5=
EXTT6=
EXTT7=
EXTT8=
EXTT9=
EXTT10=
EXTT11=
PLAYORDER=
